# xmcd CD database file
#
# Track frame offsets:
#	150
#	22517
#	50094
#	70904
#	87642
#	104350
#	124036
#	145941
#	167426
#	189352
#
# Disc length: 2874 seconds
#
# Revision: 0
# Processed by: cddbd v1.5.2PL0 Copyright (c) Steve Scherf et al.
# Submitted via: jetAudio 7
#
DISCID=800b380a
DTITLE=음악가 없음 - 앨범 없음
DYEAR=1900
DGENRE=장르 없음
TTITLE0=cliff by the sea
TTITLE1=searching the river
TTITLE2=contemplating the sea
TTITLE3=canoeing
TTITLE4=whisper of the swamp
TTITLE5=roaming on the meadow
TTITLE6=the wind from the valley
TTITLE7=the forgotten forest
TTITLE8=ripples of the rain
TTITLE9=a soundless path
EXTD=
EXTT0=
EXTT1=
EXTT2=
EXTT3=
EXTT4=
EXTT5=
EXTT6=
EXTT7=
EXTT8=
EXTT9=
PLAYORDER=
